<svg id="Layer_1" xmlns="http://www.w3.org/2000/svg" viewBox="0 0 305.6 82.4"><style>.st0{fill:#fff}</style><g id="Hopsworks_4_"><path class="st0" d="M109.7 23.7v22.2h-6.1v-8.7h-7.5v8.7h-6V23.7h6v8.2h7.5v-8.2zM123.5 46.1c-1.7 0-3.2-.3-4.6-1-1.4-.6-2.6-1.5-3.5-2.5-1-1.1-1.7-2.3-2.3-3.6-.5-1.4-.8-2.7-.8-4.2s.3-2.9.8-4.2c.6-1.4 1.3-2.5 2.4-3.6s2.2-1.9 3.6-2.5 2.9-.9 4.5-.9c1.7 0 3.2.3 4.6 1 1.4.6 2.6 1.5 3.5 2.6 1 1.1 1.7 2.3 2.3 3.6.5 1.4.8 2.7.8 4.2s-.3 2.9-.8 4.2c-.6 1.3-1.3 2.5-2.3 3.6-1 1-2.2 1.9-3.6 2.5-1.5.5-3 .8-4.6.8m-5.1-11.3c0 .7.1 1.5.3 2.2s.5 1.3.9 1.9c.4.5.9 1 1.6 1.3.6.3 1.4.5 2.3.5s1.6-.2 2.3-.5c.6-.3 1.2-.8 1.6-1.3.4-.6.7-1.2.9-1.9s.3-1.4.3-2.2c0-.7-.1-1.5-.3-2.2s-.5-1.3-1-1.8c-.4-.5-1-1-1.6-1.3s-1.4-.5-2.2-.5c-.9 0-1.6.2-2.3.5-.6.3-1.2.8-1.6 1.3-.4.6-.7 1.2-.9 1.9s-.3 1.4-.3 2.1M137.4 45.9V23.7h9.6c1.1 0 2.1.2 3 .7s1.7 1 2.4 1.7 1.2 1.5 1.5 2.5c.4.9.6 1.9.6 2.8 0 1-.2 1.9-.5 2.9-.4.9-.8 1.7-1.5 2.5-.6.7-1.4 1.3-2.3 1.7-.9.4-1.9.6-3 .6h-3.6v6.8h-6.2zm6-12.1h3.2c.4 0 .7-.2 1-.5s.5-1 .5-1.9-.2-1.5-.6-1.9c-.4-.3-.7-.5-1.1-.5h-3.1l.1 4.8zM170.2 31c-.6-.4-1.3-.7-1.9-1-.6-.2-1.2-.5-1.9-.7s-1.4-.3-2-.3c-.5 0-1 .1-1.3.2-.3.2-.5.4-.5.8 0 .3.1.5.3.7s.5.4.8.5c.4.2.8.3 1.3.5.5.1 1.1.3 1.7.5 1 .3 1.9.7 2.8 1 .8.4 1.5.8 2.1 1.3s1 1.1 1.3 1.9c.3.7.5 1.6.5 2.7 0 1.3-.2 2.5-.7 3.4s-1.1 1.6-1.9 2.2c-.8.5-1.7.9-2.7 1.2-1 .2-2 .4-3 .4-.8 0-1.6-.1-2.5-.2-.9-.1-1.7-.3-2.5-.5s-1.7-.5-2.4-.8c-.8-.3-1.5-.7-2.2-1.1l2.6-5.3c.7.5 1.5.9 2.3 1.2.7.3 1.4.6 2.3.8.8.2 1.7.4 2.6.4.7 0 1.1-.1 1.4-.3s.4-.4.4-.7-.1-.6-.4-.8c-.3-.2-.6-.4-1.1-.6-.5-.2-1-.3-1.6-.5s-1.2-.4-1.9-.6c-1-.3-1.8-.7-2.5-1.1-.7-.4-1.3-.8-1.7-1.3-.5-.5-.8-1-1-1.7-.2-.6-.3-1.3-.3-2.2 0-1.2.2-2.3.7-3.2.4-.9 1.1-1.7 1.8-2.3.8-.6 1.6-1.1 2.6-1.4s2-.5 3.1-.5c.8 0 1.6.1 2.4.2.8.2 1.5.4 2.2.6s1.4.5 2 .8 1.2.5 1.7.8l-2.9 5zM216.6 46.1c-1.7 0-3.2-.3-4.6-1-1.4-.6-2.6-1.5-3.5-2.5-1-1.1-1.7-2.3-2.3-3.6-.5-1.4-.8-2.7-.8-4.2s.3-2.9.8-4.2 1.3-2.5 2.4-3.6c1-1 2.2-1.9 3.6-2.5 1.4-.6 2.9-.9 4.5-.9 1.7 0 3.2.3 4.6 1 1.4.6 2.5 1.5 3.5 2.6s1.7 2.3 2.3 3.6c.5 1.4.8 2.7.8 4.2s-.3 2.9-.8 4.2-1.3 2.5-2.3 3.6c-1 1-2.2 1.9-3.6 2.5-1.4.5-2.9.8-4.6.8m-5-11.3c0 .7.1 1.5.3 2.2s.5 1.3.9 1.9.9 1 1.6 1.3c.6.3 1.4.5 2.3.5.9 0 1.6-.2 2.3-.5.6-.3 1.2-.8 1.6-1.3s.7-1.2.9-1.9.3-1.4.3-2.2c0-.7-.1-1.5-.3-2.2s-.5-1.3-1-1.8c-.4-.5-1-1-1.6-1.3s-1.4-.5-2.2-.5c-.9 0-1.6.2-2.3.5-.6.3-1.2.8-1.6 1.3-.4.6-.7 1.2-.9 1.9-.2.7-.3 1.4-.3 2.1M230.5 45.9V23.7h10.2c1.1 0 2.1.2 3 .7.9.4 1.7 1 2.4 1.7s1.2 1.5 1.5 2.5c.4.9.6 1.9.6 2.8 0 1.3-.3 2.5-.8 3.6-.6 1.1-1.3 2-2.3 2.7l4.7 8.1h-6.9L239 39h-2.3v6.8l-6.2.1zm6.1-12.1h3.8c.4 0 .7-.2 1-.6.3-.4.5-1 .5-1.7 0-.8-.2-1.4-.6-1.8-.4-.4-.7-.6-1.1-.6h-3.7l.1 4.7zM251.6 45.9V23.7h6.1v8.5l6.7-8.5h6.9l-8.1 10 8.7 12.2h-7l-5.5-8.2-1.7 1.8v6.4zM286.6 31c-.6-.4-1.3-.7-1.9-1-.6-.2-1.2-.5-1.9-.7-.7-.2-1.4-.3-2-.3-.5 0-1 .1-1.3.2-.3.2-.5.4-.5.8 0 .3.1.5.3.7.2.2.5.4.8.5.4.2.8.3 1.3.5.5.1 1.1.3 1.7.5 1 .3 1.9.7 2.8 1 .8.4 1.5.8 2.1 1.3s1 1.1 1.3 1.9c.3.7.5 1.6.5 2.7 0 1.3-.2 2.5-.7 3.4s-1.1 1.6-1.9 2.2c-.8.5-1.7.9-2.7 1.2-1 .2-2 .4-3 .4-.8 0-1.6-.1-2.5-.2-.9-.1-1.7-.3-2.5-.5s-1.7-.5-2.4-.8c-.8-.3-1.5-.7-2.2-1.1l2.6-5.3c.7.5 1.5.9 2.3 1.2.7.3 1.4.6 2.3.8.8.2 1.7.4 2.6.4.7 0 1.1-.1 1.4-.3s.4-.4.4-.7-.1-.6-.4-.8-.6-.4-1.1-.6c-.5-.2-1-.3-1.6-.5s-1.2-.4-1.9-.6c-1-.3-1.8-.7-2.5-1.1s-1.3-.8-1.7-1.3c-.5-.5-.8-1-1-1.7-.2-.6-.3-1.3-.3-2.2 0-1.2.2-2.3.7-3.2.4-.9 1.1-1.7 1.8-2.3.8-.6 1.6-1.1 2.6-1.4s2-.5 3.1-.5c.8 0 1.6.1 2.4.2.8.2 1.5.4 2.2.6s1.4.5 2 .8 1.2.5 1.7.8l-2.9 5zM175.2 24.1h6.2l2.3 12.1 3.3-12.1h6.2l3.3 12.1 2.3-12.1h6.2l-4.7 21.7h-6.5l-3.7-13.7-3.7 13.7h-6.5z"/></g><path class="st0" d="M30.4 68c-1.4.8-2.9 1.2-4.4 1.5-1.2.2-2.5.2-3.7.2-1.3 0-2.6-.2-4-.4-.1 0-.2 0-.3-.1h-.1v-.1c0-.1-.1-.2-.1-.3-.2-1.3-.4-2.6-.4-4 0-1.2 0-2.5.2-3.7.3-1.6.8-3 1.5-4.4.1-.2.2-.3.4-.2 1.6.3 3.3.2 5.1.1 1.4-.2 2.8-.5 4-1.1.1.3.2.6.2 1 0 .5.2 1 .5 1.3.4.3.9.5 1.3.5.3 0 .6.1 1 .2-.6 1.3-.9 2.7-1.1 4-.2 1.7-.2 3.4.1 5.1 0 .1 0 .3-.2.4zM17.9 69.1s0 .1 0 0M33.2 63.5c.1-1.5.5-3 1.2-4.4.2-.3.4-.5.8-.4 1.3.1 2.6 0 3.9-.1 1.8-.2 3.7-.6 5.4-1.3 1-.4 2-.9 3-1.5-.1 2 .2 4 .9 5.8.2.6.4 1.2.7 1.7.1.3.1.5-.1.7-2.1 2.6-4.5 4.7-7.5 6-2.1.9-4.3 1.5-6.7 1.3-.3 0-.5-.1-.6-.4-.8-2.4-1.2-4.9-1-7.4zM53 64.3c-.9-1.2-1.7-2.6-2.1-4.1-.4-1.4-.7-2.8-.7-4.5.1-2.8.9-5.6 2.4-8.2.8-1.4 1.8-2.7 2.7-4.1.7-1 1.5-1.3 2.6-1.3.9 0 1.8-.1 2.7-.3.3-.1.6 0 .7.4.8 2.1 1.9 4 3.1 5.9 1.1 1.7 2.2 3.3 3.5 4.8.2.2.1.3 0 .4-.8 1.5-1.7 3-2.9 4.3-1.5 1.8-3.3 3.2-5.3 4.5-1.9 1.2-3.9 2-6 2.7-.3.1-.5-.3-.7-.5z"/><path class="st0" d="M71.6 52.1c1.6-2.5 3-5.1 3.9-8 .9-2.6 1.5-7.1.9-11.2-.6-3.2-1.9-6.1-3.7-8.9-1.3-1.9-2.7-3.6-4.3-5.2l-.3-.3c-1.6-1.6-3.3-3-5.2-4.3-2.7-1.8-5.7-3.1-8.9-3.7-4.1-.6-8.6 0-11.2.9-2.9.9-5.5 2.3-8 3.9-.4.2-.3.4 0 .7 3.1 2.6 6.3 4.8 10 6.5.7.3 1.4.6 2 .9 1 .4 1.7.7 1.3 2.3-.4 1.7-.6 3.4-.5 5.2.1 2.2.4 4.4 1.1 6.5 0 .2.1.3.2.4l.1.1.1.1c.1.1.2.1.4.2 2.1.7 4.3 1 6.5 1.1 1.7.1 3.5 0 5.2-.5 1.5-.4 1.8.3 2.3 1.3.3.7.5 1.4.9 2 1.7 3.6 4 6.9 6.5 10 .3.4.5.4.7 0zM46.8 52.8c-2.1 1.5-4.4 2.3-6.9 2.8-1.5.3-3.1.4-4.7.4-1.1 0-2.1-.2-3.2-.3-.2 0-.3-.1-.4-.1h-.1v-.1c-.1-.1-.1-.2-.1-.4-.1-1.1-.2-2.1-.3-3.2 0-1.6.1-3.1.4-4.7.4-2.5 1.3-4.8 2.8-6.9.5-.7 1.1-1.2 2-1.4 1.2-.2 2.3-.8 3.4-1.3 1.9-1 3.8-2.1 5.5-3.5.3 1.8.7 3.5 1.3 5.2.1.3.3.5.5.7l.1.1c.2.2.4.3.7.5 1.7.6 3.4.9 5.2 1.3-1.4 1.7-2.5 3.6-3.5 5.5-.6 1.1-1.1 2.2-1.3 3.4-.1.9-.6 1.5-1.4 2zM17.9 69.2s.1 0 0 0M23.6 53.9c1.5-.1 3-.5 4.4-1.2.3-.2.5-.4.4-.8-.1-1.3 0-2.6.1-3.9.2-1.8.6-3.7 1.3-5.4.4-1 .9-2 1.5-3-2 .1-4-.2-5.8-.9-.6-.2-1.2-.4-1.7-.7-.3-.1-.5-.1-.7.1-2.6 2.1-4.7 4.5-6 7.5-.9 2.1-1.5 4.3-1.3 6.7 0 .3.1.5.4.6 2.4.8 4.9 1.2 7.4 1z"/><path class="st0" d="M22.8 34.1c1.2.9 2.6 1.7 4.1 2.1 1.4.4 2.8.7 4.5.7 2.8-.1 5.6-.9 8.2-2.4 1.4-.8 2.7-1.8 4.1-2.7 1-.7 1.3-1.5 1.3-2.6 0-.9.1-1.8.3-2.7.1-.3 0-.6-.4-.7-2.1-.8-4-1.9-5.9-3.1-1.7-1.1-3.3-2.2-4.8-3.5-.2-.2-.3-.1-.4 0-1.5.8-3 1.7-4.3 2.9-1.8 1.5-3.2 3.3-4.5 5.3-1.2 1.9-2 3.9-2.7 6-.1.3.3.5.5.7zM186 56.9V58h-5.2v-7.6h5.1v1.1H182v2.2h3.4v1H182V57l4-.1zM188.4 52.6V58h-1.2v-7.6h.9l4.3 5.5v-5.5h1.2V58h-1l-4.2-5.4zM201 51.4h-2.5V58h-1.2v-6.5h-2.5v-1.1h6.3v1h-.1zM207.2 56.9V58H202v-7.6h5.1v1.1h-3.9v2.2h3.4v1h-3.4V57l4-.1zM208.5 58v-7.6h3.3c.3 0 .7.1.9.2.3.1.5.3.7.6.2.2.4.5.5.8s.2.6.2.9c0 .3 0 .5-.1.7s-.2.5-.3.7-.3.4-.5.5-.4.3-.6.3l1.8 2.9H213l-1.6-2.6h-1.8V58h-1.1zm1.2-3.7h2.1c.2 0 .3 0 .5-.1.1-.1.3-.2.4-.3.1-.1.2-.3.2-.5.1-.2.1-.4.1-.5s0-.4-.1-.5-.2-.3-.3-.4c-.1-.1-.2-.2-.4-.3s-.3-.1-.5-.1h-2v2.7zM215.5 58v-7.6h3.2c.3 0 .7.1.9.2.3.1.5.3.7.6.2.2.4.5.5.8s.2.6.2.9c0 .3-.1.6-.2.9s-.3.6-.5.8-.4.4-.7.6c-.3.1-.6.2-.9.2h-2.1V58h-1.1zm1.2-3.7h2c.2 0 .3 0 .5-.1.1-.1.3-.2.4-.3.1-.1.2-.3.2-.4.1-.2.1-.4.1-.6 0-.2 0-.4-.1-.6-.1-.2-.2-.3-.3-.4s-.2-.2-.4-.3c-.1-.1-.3-.1-.5-.1h-1.9v2.8zM222.2 58v-7.6h3.3c.3 0 .7.1.9.2.3.1.5.3.7.6.2.2.4.5.5.8s.2.6.2.9c0 .3 0 .5-.1.7s-.2.5-.3.7-.3.4-.5.5-.4.3-.6.3l1.8 2.9h-1.4l-1.6-2.6h-1.8V58h-1.1zm1.2-3.7h2.1c.2 0 .3 0 .5-.1.1-.1.3-.2.4-.3.1-.1.2-.3.2-.5.1-.2.1-.4.1-.5s0-.4-.1-.5-.2-.3-.3-.4c-.1-.1-.2-.2-.4-.3s-.3-.1-.5-.1h-2v2.7zM229.3 58v-7.6h1.2V58h-1.2zM236.7 52.2l-.3-.3c-.1-.1-.3-.2-.5-.3s-.4-.1-.6-.2-.4-.1-.7-.1c-.5 0-.9.1-1.1.3s-.4.4-.4.8c0 .2 0 .3.1.5l.3.3c.2.1.4.2.6.2.2.1.5.1.8.2.4.1.7.2 1 .3s.6.3.8.4.4.4.5.6c.1.2.2.5.2.9s-.1.7-.2 1-.3.5-.6.7-.5.3-.9.4-.7.1-1.1.1c-.6 0-1.1-.1-1.7-.3-.5-.2-1-.4-1.5-.8l.5-1c.1.1.2.2.4.3l.6.3c.2.1.5.2.8.2.3.1.6.1.8.1.5 0 .8-.1 1.1-.2s.4-.4.4-.7c0-.2 0-.4-.1-.5s-.2-.2-.4-.3-.4-.2-.7-.3-.5-.2-.9-.2c-.4-.1-.7-.2-1-.3s-.5-.2-.7-.4-.3-.3-.4-.6c-.1-.2-.1-.5-.1-.8 0-.4.1-.7.2-1 .1-.3.3-.5.6-.7s.5-.3.9-.4c.3-.1.7-.1 1.1-.1.5 0 1 .1 1.4.2s.8.4 1.1.6l-.3 1.1zM243.9 56.9V58h-5.2v-7.6h5.1v1.1h-3.9v2.2h3.4v1h-3.4V57l4-.1zM253 56.9V58h-5.2v-7.6h5.1v1.1H249v2.2h3.4v1H249V57l4-.1zM254.3 58v-7.6h2.7c.6 0 1.1.1 1.6.3s.8.5 1.2.8c.3.3.5.7.7 1.2s.2 1 .2 1.5c0 .6-.1 1.1-.3 1.6-.2.5-.4.9-.7 1.2-.3.3-.7.6-1.2.8s-1 .3-1.5.3l-2.7-.1zm5.1-3.8c0-.4-.1-.8-.2-1.1s-.3-.6-.5-.9c-.2-.2-.5-.4-.8-.6-.3-.1-.7-.2-1-.2h-1.5v5.5h1.5c.4 0 .8-.1 1.1-.2.3-.1.6-.3.8-.6.2-.2.4-.5.5-.9.1-.3.1-.6.1-1zM261.9 58v-7.6h1.2V58h-1.2zM270.4 51.4h-2.5V58h-1.2v-6.5h-2.5v-1.1h6.3l-.1 1zM271.4 58v-7.6h1.2V58h-1.2zM277.5 58c-.5 0-1-.1-1.5-.3s-.8-.5-1.2-.9c-.3-.4-.6-.8-.7-1.2-.2-.5-.3-.9-.3-1.4s.1-1 .3-1.5c.2-.5.4-.9.8-1.2.3-.4.7-.6 1.2-.9.4-.2.9-.3 1.5-.3.5 0 1 .1 1.5.3s.8.5 1.1.9c.3.4.6.8.7 1.2.2.5.3.9.3 1.4s-.1 1-.3 1.5c-.2.5-.4.9-.8 1.2-.3.4-.7.6-1.2.8-.4.3-.9.4-1.4.4zm-2.4-3.8c0 .4.1.7.2 1s.3.6.5.9c.2.3.5.5.8.6s.6.2 1 .2.7-.1 1-.2c.3-.2.5-.4.8-.6.2-.3.4-.6.5-.9.1-.3.2-.7.2-1 0-.4-.1-.7-.2-1s-.3-.6-.5-.9-.5-.5-.8-.6c-.3-.2-.6-.2-1-.2s-.7.1-1 .2c-.3.2-.6.4-.8.6s-.4.6-.5.9c-.2.3-.2.6-.2 1zM283.6 52.6V58h-1.2v-7.6h.9l4.3 5.5v-5.5h1.2V58h-1l-4.2-5.4z"/></svg>